<svg xmlns="http://www.w3.org/2000/svg" width="26" height="260"><defs><clipPath id="a"><path d="M0 500h1024V0H0v500z"/></clipPath></defs><path d="M154.344 239.362l2.125 2.125-4.25 4.25 1.406 1.406 4.25-4.25 2.125 2.125v-5.656zm-6.344 1l-1 1v9l1 1h10l1-1v-4l-1-1-1 1v3h-8v-7h4l1-1-1-1z" style="marker:none" color="#000" overflow="visible" filter="url(#filter6591-2)" transform="translate(-140 -102.362)"/><path style="marker:none" d="M12.5 9c-.277 0-.5.223-.5.5V12H9.5c-.277 0-.5.223-.5.5v1c0 .277.223.5.5.5H12v2.5c0 .277.223.5.5.5h1c.277 0 .5-.223.5-.5V14h2.5c.277 0 .5-.223.5-.5v-1c0-.277-.223-.5-.5-.5H14V9.5c0-.277-.223-.5-.5-.5zM9.5 38c-.277 0-.5.223-.5.5v1c0 .277.223.5.5.5h7c.277 0 .5-.223.5-.5v-1c0-.277-.223-.5-.5-.5zM20 216.126a5.811 5.811 0 0 1-1.65.445 2.844 2.844 0 0 0 1.263-1.564c-.555.324-1.17.56-1.824.686a2.89 2.89 0 0 0-2.097-.893c-1.586 0-2.872 1.266-2.872 2.828 0 .222.025.437.075.644a8.197 8.197 0 0 1-5.92-2.954 2.782 2.782 0 0 0-.389 1.421c0 .982.507 1.847 1.278 2.354a2.9 2.9 0 0 1-1.301-.353v.035c0 1.37.99 2.512 2.304 2.772a2.902 2.902 0 0 1-1.297.048 2.87 2.87 0 0 0 2.683 1.964A5.82 5.82 0 0 1 6 224.73 8.223 8.223 0 0 0 10.403 226c5.283 0 8.172-4.309 8.172-8.046 0-.122 0-.244-.01-.365A5.786 5.786 0 0 0 20 216.125" color="#000" overflow="visible"/><g clip-path="url(#a)" transform="matrix(.05246 0 0 -.05246 -27.338 207.324)"><path d="M654.617 387.447l-19.064-19.064V139.616l19.064-19.063h129.98v95.319h-34.783V254h34.782v39.893c0 34.472 21.054 53.243 51.806 53.243 14.731 0 20.905-1.096 24.594-1.586v-34.359l-14.842-.01c-16.724 0-19.963-7.947-19.963-19.609V254h39.887l-5.193-38.128h-34.694v-95.32h57.192l19.064 19.064v228.767l-19.064 19.064z"/></g><path d="M13.5 239a7.5 7.5 0 0 0-3.01 14.37c-.022-.525-.004-1.153.13-1.723l.965-4.087s-.24-.479-.24-1.187c0-1.11.645-1.941 1.447-1.941.682 0 1.012.512 1.012 1.126 0 .686-.438 1.711-.663 2.662-.188.795.4 1.444 1.184 1.444 1.421 0 2.378-1.825 2.378-3.987 0-1.644-1.107-2.875-3.12-2.875-2.276 0-3.693 1.697-3.693 3.592 0 .654.193 1.114.494 1.471.14.164.158.23.108.418-.036.138-.118.47-.153.602-.05.19-.204.258-.375.188-1.048-.428-1.536-1.576-1.536-2.866 0-2.13 1.797-4.685 5.36-4.685 2.864 0 4.748 2.072 4.748 4.297 0 2.942-1.635 5.14-4.047 5.14-.81 0-1.57-.438-1.832-.935 0 0-.435 1.728-.528 2.062-.158.578-.47 1.156-.754 1.606A7.5 7.5 0 1 0 13.5 239"/><path d="M11.5 163a4.5 4.5 0 1 0 2.344 8.344L17.5 175l1.5-1.5-3.656-3.656A4.5 4.5 0 0 0 11.5 163zm0 1.5a3 3 0 1 1 0 6 3 3 0 0 1 0-6zM10 61l-1 1 3 3-3 3 1 1 3-3 3 3 1-1-3-3 3-3-1-1-3 3z" style="marker:none" color="#000" overflow="visible"/><path style="text-indent:0;text-align:start;line-height:normal;text-transform:none;block-progression:tb;marker:none;-inkscape-font-specification:Sans" d="M13 110.969a.562.562 0 0 0-.281.062L6 113.001v1l6.719 1.937c.088.048.18.062.281.062.1 0 .193-.014.281-.062L20 114v-1l-6.719-1.969a.57.57 0 0 0-.281-.062zM6 118l6.719 1.938c.088.048.18.062.281.062.1 0 .193-.014.281-.062L20 118v-2l-6.719 1.938A.568.568 0 0 1 13 118a.567.567 0 0 1-.281-.062L6 116zm0 4l6.719 1.938c.088.048.18.062.281.062.1 0 .193-.014.281-.062L20 122v-2l-6.719 1.938A.568.568 0 0 1 13 122a.567.567 0 0 1-.281-.062L6 120z" font-weight="400" color="#000" overflow="visible" font-family="Sans"/><path d="M13 84a7 7 0 1 0 0 14 7 7 0 0 0 0-14zm-.5 3h1c.277 0 .5.223.5.5v1c0 .277-.223.5-.5.5h-1a.499.499 0 0 1-.5-.5v-1c0-.277.223-.5.5-.5zm0 3h1c.277 0 .5.223.5.5v4c0 .277-.223.5-.5.5h-1a.499.499 0 0 1-.5-.5v-4c0-.277.223-.5.5-.5z" style="marker:none" color="#000" overflow="visible"/></svg>